<svg width="10" height="15" viewBox="0 0 10 15" fill="none" xmlns="http://www.w3.org/2000/svg">
<path d="M0.181059 4.62941C0.0723788 4.72007 0.00685559 4.85221 0.000520931 4.99355C-0.0059128 5.13489 0.0474379 5.27247 0.147505 5.37254C0.247573 5.47251 0.385055 5.52596 0.526394 5.51952C0.667835 5.51309 0.799976 5.44757 0.890536 5.33888L4.51447 1.719L4.51447 13.6837C4.52378 13.8576 4.62186 14.0145 4.77419 14.0988C4.92642 14.1832 5.11143 14.1832 5.26374 14.0988C5.41606 14.0145 5.51415 13.8576 5.52335 13.6837L5.52335 1.719L9.14324 5.34446C9.23885 5.43572 9.36584 5.48659 9.49798 5.48659C9.63011 5.48659 9.75719 5.43572 9.85272 5.34446C9.94705 5.25043 10 5.12284 10 4.98972C10 4.85659 9.94705 4.72891 9.85272 4.63498L5.36879 0.151048L5.36889 0.151048C5.27605 0.0546424 5.14797 0.000105633 5.01415 0.000105639C4.88023 0.000105645 4.75215 0.0546425 4.65941 0.151048L0.181059 4.62941Z" fill="#FF3B3B"/>
</svg>
