<svg xmlns="http://www.w3.org/2000/svg" width="17.938" height="17.946" viewBox="0 0 17.938 17.946">
  <path id="insta" d="M116.819.082c.957-.044,1.262-.054,3.7-.054s2.741.011,3.7.054A6.6,6.6,0,0,1,126.393.5a4.594,4.594,0,0,1,2.622,2.624,6.6,6.6,0,0,1,.417,2.178c.044.958.054,1.264.054,3.7s-.01,2.742-.054,3.7a6.57,6.57,0,0,1-.417,2.178,4.581,4.581,0,0,1-2.622,2.624,6.593,6.593,0,0,1-2.177.418c-.958.044-1.263.054-3.7.054s-2.741-.011-3.7-.054a6.573,6.573,0,0,1-2.177-.418,4.586,4.586,0,0,1-2.624-2.623A6.625,6.625,0,0,1,111.6,12.7c-.044-.958-.054-1.263-.054-3.7s.011-2.742.054-3.7a6.6,6.6,0,0,1,.416-2.18,4.4,4.4,0,0,1,1.036-1.589A4.4,4.4,0,0,1,114.641.5a6.618,6.618,0,0,1,2.177-.417ZM124.141,1.7c-.945-.043-1.229-.052-3.624-.052s-2.678.009-3.624.052a4.954,4.954,0,0,0-1.666.309,2.79,2.79,0,0,0-1.032.671,2.794,2.794,0,0,0-.67,1.032,4.966,4.966,0,0,0-.309,1.667c-.043.946-.052,1.23-.052,3.626s.009,2.68.052,3.626a4.966,4.966,0,0,0,.309,1.667,2.961,2.961,0,0,0,1.7,1.7,4.957,4.957,0,0,0,1.666.309c.946.043,1.228.052,3.624.052s2.679-.009,3.624-.052A4.957,4.957,0,0,0,125.807,16a2.961,2.961,0,0,0,1.7-1.7,4.966,4.966,0,0,0,.309-1.667c.043-.946.052-1.23.052-3.626s-.009-2.68-.052-3.626a4.966,4.966,0,0,0-.309-1.667,2.784,2.784,0,0,0-.67-1.032,2.785,2.785,0,0,0-1.032-.671,4.954,4.954,0,0,0-1.666-.309Zm-4.77,10.07a3,3,0,1,0-1.071-.756A2.992,2.992,0,0,0,119.371,11.767ZM117.257,5.74A4.614,4.614,0,1,1,115.907,9a4.6,4.6,0,0,1,1.35-3.261Zm8.893-.664a1.079,1.079,0,0,0,.249-.354,1.1,1.1,0,0,0,.093-.423,1.09,1.09,0,1,0-.342.777Z" transform="translate(-111.548 -0.028)" fill="#fff" fill-rule="evenodd"/>
</svg>
