<svg xmlns="http://www.w3.org/2000/svg" width="14.061" height="14.045" viewBox="0 0 14.061 14.045">
  <g id="linkdin" transform="translate(-55.54 -1.393)">
    <path id="Path_2" data-name="Path 2" d="M57.23,4.774a1.691,1.691,0,1,0-1.69-1.691A1.69,1.69,0,0,0,57.23,4.774Z" fill="#fff"/>
    <path id="linkidin" d="M60.515,6.056v9.381h2.911V10.8c0-1.224.23-2.409,1.747-2.409,1.5,0,1.515,1.4,1.515,2.487v4.563H69.6V10.293c0-2.527-.544-4.469-3.5-4.469a3.061,3.061,0,0,0-2.756,1.515h-.039V6.056Zm-4.744,0h2.916v9.381H55.77Z" fill="#fff"/>
  </g>
</svg>
