<svg width="12" height="15" viewBox="0 0 12 15" fill="none" xmlns="http://www.w3.org/2000/svg">
<path d="M9.72753 9.94008C10.9221 9.94008 11.8941 10.912 11.8941 12.1064C11.8941 13.301 10.9221 14.2729 9.72753 14.2729C8.53292 14.2729 7.561 13.301 7.561 12.1064C7.561 11.8562 7.60583 11.6167 7.68419 11.3929L4.09358 9.28308C3.79147 9.50054 3.43952 9.65818 3.04939 9.72912C2.36977 9.85212 1.68237 9.70356 1.11442 9.31012C0.546324 8.91649 0.165636 8.32539 0.0422961 7.64577C-0.081072 6.96576 0.0674881 6.27855 0.46111 5.71046C0.854735 5.14237 1.44584 4.76168 2.12565 4.63834C2.28162 4.61 2.43795 4.59611 2.59318 4.59611C3.11443 4.59611 3.6231 4.75392 4.06079 5.05716C4.07264 5.06531 4.08302 5.07475 4.09469 5.08309L7.71104 2.95307C7.61546 2.70894 7.56099 2.44426 7.56099 2.16656C7.56099 0.972006 8.53292 3.52859e-05 9.72752 3.52859e-05C10.9221 3.52859e-05 11.8941 0.971958 11.8941 2.16656C11.8941 3.36098 10.9221 4.3329 9.72752 4.3329C9.19571 4.3329 8.70875 4.13952 8.33143 3.82053L4.82381 5.88643C4.97182 6.14206 5.0787 6.42252 5.13297 6.72164V6.72183C5.24689 7.34996 5.1213 7.96642 4.82326 8.47969L8.27231 10.5061C8.65741 10.1557 9.16718 9.94004 9.72754 9.94004L9.72753 9.94008ZM9.72753 13.2106C10.3364 13.2106 10.8317 12.7153 10.8317 12.1064C10.8317 11.4975 10.3364 11.0024 9.72753 11.0024C9.11866 11.0024 8.62335 11.4977 8.62335 12.1064C8.62335 12.7153 9.11866 13.2106 9.72753 13.2106ZM2.31577 5.68361C1.91511 5.75641 1.56668 5.98072 1.33474 6.31543C1.10283 6.65015 1.01503 7.05528 1.08783 7.45612C1.16063 7.85678 1.38494 8.20522 1.71965 8.43715C1.97769 8.6159 2.27741 8.70907 2.58469 8.70907C2.6762 8.70907 2.76826 8.70074 2.85995 8.68425C3.68719 8.53403 4.23807 7.73898 4.08804 6.91193C4.01524 6.51108 3.79092 6.16264 3.45602 5.93076C3.12149 5.69866 2.71655 5.61086 2.31571 5.68366L2.31577 5.68361ZM10.8319 2.16674C10.8319 1.55787 10.3366 1.06257 9.72777 1.06257C9.1189 1.06257 8.62359 1.55787 8.62359 2.16674C8.62359 2.77562 9.1189 3.27073 9.72777 3.27073C10.3366 3.27092 10.8319 2.77562 10.8319 2.16674Z" fill="#FF3B3B"/>
</svg>
