<svg xmlns="http://www.w3.org/2000/svg" width="18.513" height="15.057" viewBox="0 0 18.513 15.057">
  <path id="twitter" d="M244.708,3.24a7.594,7.594,0,0,1-2.181.6,3.807,3.807,0,0,0,1.67-2.1,7.576,7.576,0,0,1-2.412.922,3.8,3.8,0,0,0-6.472,3.467,10.787,10.787,0,0,1-4.337-1.153,10.8,10.8,0,0,1-3.492-2.818,3.8,3.8,0,0,0,1.176,5.074,3.789,3.789,0,0,1-1.721-.476V6.8a3.8,3.8,0,0,0,3.047,3.726,3.822,3.822,0,0,1-1.715.065,3.8,3.8,0,0,0,3.548,2.638,7.619,7.619,0,0,1-4.718,1.627,7.728,7.728,0,0,1-.906-.053,10.8,10.8,0,0,0,16.629-9.1c0-.163,0-.328-.011-.491a7.729,7.729,0,0,0,1.894-1.966v0Z" transform="translate(-226.195 -1.454)" fill="#fff"/>
</svg>
