<svg xmlns="http://www.w3.org/2000/svg" width="19.568" height="13.752" viewBox="0 0 19.568 13.752">
  <path id="youtube" d="M177.928,1.659h.109a54.081,54.081,0,0,1,7.473.41,2.462,2.462,0,0,1,1.731,1.737,11.183,11.183,0,0,1,.269,1.715l.012.127.027.318.01.127c.079,1.118.089,2.166.09,2.395V8.58c0,.237-.012,1.356-.1,2.521l-.01.128-.011.127a12.2,12.2,0,0,1-.287,1.906A2.455,2.455,0,0,1,185.51,15a55.375,55.375,0,0,1-7.558.41h-.174c-.378,0-1.941-.007-3.58-.064l-.208-.007-.106,0-.21-.009-.209-.009A19.661,19.661,0,0,1,170.219,15a2.455,2.455,0,0,1-1.73-1.736,12.049,12.049,0,0,1-.288-1.906l-.01-.128-.009-.127q-.092-1.244-.1-2.491V8.459c0-.263.013-1.172.079-2.175l.008-.126,0-.064.01-.127.027-.318.012-.127a11.039,11.039,0,0,1,.269-1.715,2.455,2.455,0,0,1,1.731-1.737,20.055,20.055,0,0,1,3.246-.318l.207-.009.211-.007.105,0,.209-.009q1.746-.056,3.493-.062h.236Zm-2.019,3.928v5.9l5.084-2.946Z" transform="translate(-168.081 -1.659)" fill="#fff"/>
</svg>
